<?xml version="1.0" encoding="UTF-8"?>
<svg width="512px" height="512px" viewBox="0 0 512 512" version="1.1" xmlns="http://www.w3.org/2000/svg" xmlns:xlink="http://www.w3.org/1999/xlink">
    <title>Desktop Copy</title>
    <defs>
        <linearGradient x1="67.7677951%" y1="73.3352269%" x2="35.6526123%" y2="16.2541368%" id="linearGradient-1">
            <stop stop-color="#563AF7" offset="0%"></stop>
            <stop stop-color="#C150D7" offset="100%"></stop>
        </linearGradient>
        <linearGradient x1="100%" y1="50.0000062%" x2="-2.22044605e-14%" y2="50%" id="linearGradient-2">
            <stop stop-color="#563AF7" offset="0%"></stop>
            <stop stop-color="#35AED5" offset="49.7378501%"></stop>
            <stop stop-color="#4DCCB1" offset="100%"></stop>
        </linearGradient>
    </defs>
    <g id="Desktop-Copy" stroke="none" stroke-width="1" fill="none" fill-rule="evenodd">
        <g id="Group" transform="translate(104.978000, 98.000000)">
            <path d="M191.982,166.608 L201.023,182.164 L153.467,264.001 L144.72,248.952 L191.982,166.608 Z M182.058801,163.803846 L138.917,238.968 L117.039,201.327 L138.638,163.804 L182.058801,163.803846 Z M95.144,0 L158.63,109.228 L135.798,148.723 L70.9893399,34.1079183 C72.4859892,32.0939878 73.3716408,29.5980202 73.3716408,26.8949707 C73.3716408,20.2144877 67.9619725,14.7988863 61.2888084,14.7988863 C54.6156444,14.7988863 49.2059761,20.2144877 49.2059761,26.8949707 C49.2059761,33.5754536 54.6156444,38.991055 61.2888084,38.991055 C61.6084749,38.991055 61.9252419,38.9786277 62.2386538,38.9542294 L129.988,158.771 L127.07966,163.804084 L127.097,163.804 L111.241,191.351 L0.022,0 L95.144,0 Z M184.533,153.793 L144.419529,153.793293 L164.422,119.192 L184.533,153.793 Z" id="Combined-Shape" fill="url(#linearGradient-1)"></path>
            <path d="M276.740412,32.0836472 L310.448,32.084 L123.506,355 L27.021,355 L137.807,163.631 L181.355114,163.631423 L93.2719839,316.515254 C92.8556162,316.472112 92.4329834,316.45 92.0051718,316.45 C85.3136366,316.45 79.8890756,321.859885 79.8890756,328.533317 C79.8890756,335.206749 85.3136366,340.616634 92.0051718,340.616634 C98.6967069,340.616634 104.121268,335.206749 104.121268,328.533317 C104.121268,325.945972 103.30586,323.548561 101.917347,321.58273 L198.681055,153.631675 L143.612221,153.631437 L164.19705,118.159817 L221.249854,118.160268 L264.994193,38.9235122 C265.263314,38.9413226 265.534839,38.9503696 265.808482,38.9503696 C270.626735,38.9503696 274.788095,36.1454793 276.740412,32.0836472 Z M329.022,0 L316.237,22.084 L276.938463,22.0843731 C275.080494,17.7897431 270.796485,14.7837352 265.808482,14.7837352 C259.116946,14.7837352 253.692385,20.1936206 253.692385,26.8670524 C253.692385,29.6174966 254.613835,32.1533068 256.165662,34.1841974 L215.323634,108.159831 L169.921,108.16 L232.536,0 L329.022,0 Z" id="Combined-Shape" fill="url(#linearGradient-2)"></path>
        </g>
    </g>
</svg>